# xmcd CD database file
#
# Track frame offsets:
#	150
#	15000
#	28189
#	46241
#	59080
#	73904
#	88303
#	97944
#	117410
#	132675
#
# Disc length: 1986 seconds
#
# Revision: 0
# Processed by: cddbd v1.5.2PL0 Copyright (c) Steve Scherf et al.
# Submitted via: CDex 1.51
#
DISCID=8d07c00a
DTITLE=Various Artist - First Ladies of Jazz
DYEAR=2006
DGENRE=Jazz
TTITLE0=From this Moment On - Ella Fitzgerald
TTITLE1=East of the Sun - Billie Holiday
TTITLE2=Lullaby of Birdland - Sarah Vaughan
TTITLE3=Make Me A Present of You - Dinah Washington
TTITLE4=A Sunday Kind of Love - Etta James
TTITLE5=My Foolish Heart - Carmen McRae
TTITLE6=Its De-Lovely - Jeri Southern
TTITLE7=You'd Be So Nice to Come Home To - Helen Merrill
TTITLE8=You're My Thrill - Peggy Lee
TTITLE9=Bewitched, Bothered, and Bewildered - Gloria Lynne
EXTD=YEAR: 2006
EXTT0=
EXTT1=
EXTT2=
EXTT3=
EXTT4=
EXTT5=
EXTT6=
EXTT7=
EXTT8=
EXTT9=
PLAYORDER=
